<svg version="1.1" xmlns="http://www.w3.org/2000/svg" xmlns:xlink="http://www.w3.org/1999/xlink" viewBox="0 0 274 274" enable-background="new 0 0 274 274" xml:space="preserve" style="background-color:black">
<style>
.svg1 {
stroke-dasharray: 200;
stroke-dashoffset: 822;
animation: dash 15s infinite ;
}
@keyframes dash {
from {
stroke-dashoffset: 822;
stroke: #FFFF00;
}
to {
stroke-dasharray: 411;
stroke: #FFFF00;
}
}
</style><defs><filter id="f1"><feConvolveMatrix kernelMatrix="1 1 0 0 0 0 0 1 -1"/></filter></defs><path class="svg1" filter="url(#f1)" style="fill: none; stroke: white; stroke-width: 0.9; stroke-linecap: round; stroke-linejoin:  miter; stroke-miterlimit: 1;" d="M13 81 61 108ZM261 81 213 108ZM261 193 213 166ZM13 193 61 166ZM81 61 108 24ZM193 61 166 24ZM193 213 166 250ZM81 213 108 250ZM61 108 24 55ZM213 108 250 55ZM213 166 250 219ZM61 166 24 219ZM108 24 55 40ZM166 24 219 40ZM166 250 219 234ZM108 250 55 234ZM24 55 40 37ZM250 55 234 37ZM250 219 234 237ZM24 219 40 237ZM55 40 37 61ZM219 40 237 61ZM219 234 237 213ZM55 234 37 213ZM40 37 61 96ZM234 37 213 96ZM234 237 213 178ZM40 237 61 178ZM37 61 96 58ZM237 61 178 58ZM237 213 178 216ZM37 213 96 216ZM61 96 58 13ZM213 96 216 13ZM213 178 216 261ZM61 178 58 261ZM96 58 13 36ZM178 58 261 36ZM178 216 261 238ZM96 216 13 238ZM58 13 36 130ZM216 13 238 130ZM216 261 238 144ZM58 261 36 144ZM13 36 130 109ZM261 36 144 109ZM261 238 144 165ZM13 238 130 165ZM36 130 109 34ZM238 130 165 34ZM238 144 165 240ZM36 144 109 240ZM130 109 34 105ZM144 109 240 105ZM144 165 240 169ZM130 165 34 169ZM109 34 105 96ZM165 34 169 96ZM165 240 169 178ZM109 240 105 178ZM34 105 96 92ZM240 105 178 92ZM240 169 178 182ZM34 169 96 182ZM105 96 92 110ZM169 96 182 110ZM169 178 182 164ZM105 178 92 164ZM96 92 110 79ZM178 92 164 79ZM178 182 164 195ZM96 182 110 195ZM92 110 79 93ZM182 110 195 93ZM182 164 195 181ZM92 164 79 181ZM110 79 93 14ZM164 79 181 14ZM164 195 181 260ZM110 195 93 260ZM79 93 14 18ZM195 93 260 18ZM195 181 260 256ZM79 181 14 256ZM93 14 18 100ZM181 14 256 100ZM181 260 256 174ZM93 260 18 174Z" /></svg>