<svg xmlns="http://www.w3.org/2000/svg" preserveAspectRatio="xMinYMin meet" viewBox="0 0 350 566"><defs><linearGradient  x1="100%" y1="100%" x2="0%" y2="0%" id="g0"><stop stop-color="hsl(169, 75%, 45%)" stop-opacity="1" offset="10%"/><stop stop-color="hsl(210, 75%, 45%)" stop-opacity="1" offset="50%"/><stop stop-color="hsl(305, 75%, 45%)" stop-opacity="1" offset="90%"/></linearGradient></defs><style> .base {fill: #ededed;font-family:Montserrat,arial,sans-serif;font-size:30px;font-weight:400;} .series {text-transform: uppercase} .logo {font-size:200px;font-weight:100;} .meta {font-size:12px;} .small {font-size:8px;} .burn {font-weight:500;font-size:16px;} }</style><g><rect width="100%" height="100%" fill="url(#g0)" rx="10px" ry="10px" stroke-linejoin="round" /><rect width="94%" height="96%" fill="transparent" rx="10px" ry="10px" stroke-linejoin="round" x="3%" y="2%" stroke-dasharray="1,6" stroke="white" /></g><path fill="#ededed" d="M122.7,227.1 l-4.8,0l55.8,-74l0,3.2l-51.8,-69.2l5,0l48.8,65.4l-1.2,0l48.8,-65.4l4.8,0l-51.2,68.4l0,-1.6l55.2,73.2l-5,0l-52.8,-70.2l1.2,0l-52.8,70.2z" vector-effect="non-scaling-stroke" /><g transform="scale(0.5) translate(533, 790)"><circle r="39" stroke="#ededed" fill="transparent"/><path fill="#ededed" d="M0,38 a38,38 0 0 1 0,-76 a19,19 0 0 1 0,38 a19,19 0 0 0 0,38 z m -5 -57 a 5,5 0 1,0 10,0 a 5,5 0 1,0 -10,0 z" fill-rule="evenodd"/><path fill="#ededed" d="m -5, 19 a 5,5 0 1,0 10,0 a 5,5 0 1,0 -10,0"/></g><text x="50%" y="5%" class="base small" dominant-baseline="middle" text-anchor="middle">XEN・0xf230d614e75ae05df44075cab230fa67f10d8dcd</text><text x="50%" y="50%" class="base " dominant-baseline="middle" text-anchor="middle">XEN CRYPTO</text><text x="50%" y="56%" class="base burn" text-anchor="middle" dominant-baseline="middle"> 1,000,000 X</text><text x="18%" y="62%" class="base meta" dominant-baseline="middle"> #25</text><text x="82%" y="62%" class="base meta series" dominant-baseline="middle" text-anchor="end" >Xunicorn  </text><text x="18%" y="68%" class="base meta" dominant-baseline="middle" >VMU: 100</text><text x="18%" y="72%" class="base meta" dominant-baseline="middle" >EAA: 10%</text><text x="18%" y="76%" class="base meta" dominant-baseline="middle" >AMP: 2994</text><text x="18%" y="80%" class="base meta" dominant-baseline="middle" >Term: 300 days</text><text x="18%" y="84%" class="base meta" dominant-baseline="middle" >cRank: 37687..37786</text><text x="18%" y="88%" class="base meta" dominant-baseline="middle" >Maturity: Sep 24, 2023 19:34 UTC</text><text x="50%" y="95%" class="base small" dominant-baseline="middle" text-anchor="middle" >"As soon as you have made a thought, laugh at it." - Lao Tzu      </text></svg>