<svg version="1.1" xmlns="http://www.w3.org/2000/svg" xmlns:xlink="http://www.w3.org/1999/xlink" viewBox="0 0 274 274" enable-background="new 0 0 274 274" xml:space="preserve" style="background-color:black">
<style>
.svg1 {
stroke-dasharray: 200;
stroke-dashoffset: 822;
animation: dash 15s infinite ;
}
@keyframes dash {
from {
stroke-dashoffset: 822;
stroke: white;
}
to {
stroke-dasharray: 411;
stroke: rgb(106, 43, 65);
}
}
</style>
<defs><filter id="f1" x="-40" y="-20" width="100" height="200"><feOffset in="SourceGraphic" dx="60" dy="60" /><feGaussianBlur in="SourceGraphic" stdDeviation="5" result="blur2" /><feMerge><feMergeNode in="blur2" /><feMergeNode in="SourceGraphic" /></feMerge></filter></defs><path class="svg1" filter="url(#f1)" style="fill: none; stroke: white; stroke-width: 0.3; stroke-linecap: round; stroke-linejoin:  miter; stroke-miterlimit: 1;" d="M130 58 91 70ZM144 58 183 70ZM144 216 183 204ZM130 216 91 204ZM102 119 41 80ZM172 119 233 80ZM172 155 233 194ZM102 155 41 194ZM84 39 79 41ZM190 39 195 41ZM190 235 195 233ZM84 235 79 233ZM116 9 108 11ZM158 9 166 11ZM158 265 166 263ZM116 265 108 263ZM93 98 112 75ZM181 98 162 75ZM181 176 162 199ZM93 176 112 199ZM117 34 88 33ZM157 34 186 33ZM157 240 186 241ZM117 240 88 241ZM94 81 45 26ZM180 81 229 26ZM180 193 229 248ZM94 193 45 248ZM98 98 71 72ZM176 98 203 72ZM176 176 203 202ZM98 176 71 202ZM25 73 109 101ZM249 73 165 101ZM249 201 165 173ZM25 201 109 173ZM33 118 55 10ZM241 118 219 10ZM241 156 219 264ZM33 156 55 264ZM121 16 87 51ZM153 16 187 51ZM153 258 187 223ZM121 258 87 223ZM55 136 82 83ZM219 136 192 83ZM219 138 192 191ZM55 138 82 191ZM10 112 41 75ZM264 112 233 75ZM264 162 233 199ZM10 162 41 199ZM22 90 72 56ZM252 90 202 56ZM252 184 202 218ZM22 184 72 218ZM38 89 18 132ZM236 89 256 132ZM236 185 256 142ZM38 185 18 142ZM60 50 60 118ZM214 50 214 118ZM214 224 214 156ZM60 224 60 156ZM129 51 35 101ZM145 51 239 101ZM145 223 239 173ZM129 223 35 173ZM115 54 115 99ZM159 54 159 99ZM159 220 159 175ZM115 220 115 175ZM54 9 109 47ZM220 9 165 47ZM220 265 165 227ZM54 265 109 227ZM135 84 89 80ZM139 84 185 80ZM139 190 185 194ZM135 190 89 194ZM90 33 116 105ZM184 33 158 105ZM184 241 158 169ZM90 241 116 169ZM3 15 102 30ZM271 15 172 30ZM271 259 172 244ZM3 259 102 244ZM115 90 26 37ZM159 90 248 37ZM159 184 248 237ZM115 184 26 237ZM5 34 71 92ZM269 34 203 92ZM269 240 203 182ZM5 240 71 182ZM50 7 15 67ZM224 7 259 67ZM224 267 259 207ZM50 267 15 207ZM86 4 0 5ZM188 4 274 5ZM188 270 274 269ZM86 270 0 269ZM9 17 112 51ZM265 17 162 51ZM265 257 162 223ZM9 257 112 223ZM112 28 37 23ZM162 28 237 23ZM162 246 237 251ZM112 246 37 251ZM111 137 45 130ZM163 137 229 130ZM163 137 229 144ZM111 137 45 144ZM39 16 1 37ZM235 16 273 37ZM235 258 273 237ZM39 258 1 237ZM112 105 105 72ZM162 105 169 72ZM162 169 169 202ZM112 169 105 202ZM108 54 134 106ZM166 54 140 106ZM166 220 140 168ZM108 220 134 168ZM34 103 96 115ZM240 103 178 115ZM240 171 178 159ZM34 171 96 159ZM21 90 0 47ZM253 90 274 47ZM253 184 274 227ZM21 184 0 227ZM111 17 70 21ZM163 17 204 21ZM163 257 204 253ZM111 257 70 253ZM78 111 23 64ZM196 111 251 64ZM196 163 251 210ZM78 163 23 210ZM37 105 24 87ZM237 105 250 87ZM237 169 250 187ZM37 169 24 187ZM111 0 0 119ZM163 0 274 119ZM163 274 274 155ZM111 274 0 155ZM61 0 88 73ZM213 0 186 73ZM213 274 186 201ZM61 274 88 201ZM19 111 135 59ZM255 111 139 59ZM255 163 139 215ZM19 163 135 215ZM120 100 90 43ZM154 100 184 43ZM154 174 184 231ZM120 174 90 231ZM96 67 31 7ZM178 67 243 7ZM178 207 243 267ZM96 207 31 267ZM85 21 64 49ZM189 21 210 49ZM189 253 210 225ZM85 253 64 225ZM67 32 122 37ZM207 32 152 37ZM207 242 152 237ZM67 242 122 237ZM61 73 73 93ZM213 73 201 93ZM213 201 201 181ZM61 201 73 181ZM104 136 91 95ZM170 136 183 95ZM170 138 183 179ZM104 138 91 179ZM38 10 101 53ZM236 10 173 53ZM236 264 173 221ZM38 264 101 221ZM15 92 75 123ZM259 92 199 123ZM259 182 199 151ZM15 182 75 151ZM12 85 0 46ZM262 85 274 46ZM262 189 274 228ZM12 189 0 228Z" /></svg>