<?xml version="1.0" encoding="UTF-8"?><svg viewBox="-5 -5 120 120" xmlns="http://www.w3.org/2000/svg" xmlns:xlink="http://www.w3.org/1999/xlink"><title>SAT 3930503078028</title><desc>collectibles.nullish.org</desc><style>.t { font-family: Courier New; font-size: 2px; } .a {font-family: Courier New; font-size: 5px; font-weight: 400; }</style> <defs> <filter id="a"> <feFlood flood-color="black"/> <feComposite in2="SourceGraphic" operator="out"/> <feGaussianBlur stdDeviation="1"/> <feComposite in2="SourceGraphic" operator="atop"/> </filter> <linearGradient id="e" x2="0" y2="122"> <stop stop-color="#db9300" offset="0"/> <stop stop-color="#a26d00" offset=".4"/> </linearGradient> </defs> <circle cx="55" cy="55" r="52" fill="#fecb00" filter="url(#a)"/> <circle cx="55" cy="55" r="43.5" fill="url(#e)"/> <circle cx="55" cy="55" r="43" fill="#db9300" filter="url(#a)"/> <path id="g" d="m7 55a48 48 0 1 0 96 0 48 48 0 1 0-96 0" fill="none"/> <text fill="#946300" text-anchor="middle"><textPath startOffset="25%" font-family="Courier New" font-size="2.5px" font-weight="400" xlink:href="#g" xml:space="preserve">The Times 03/Jan/2009 Chancellor on brink of second bailout for banks</textPath></text> <path id="f" d="m9 50a46 46.5 0 0 1 91.5 0" fill="none"/> <text fill="#946300" text-anchor="middle"><textPath class="a" startOffset="50%" xlink:href="#f" xml:space="preserve">BLOCK 786   SAT 3930503078028   JANUARY 2009</textPath></text> <g transform="scale(0.05)translate(800,600)" fill="#db9300" filter="drop-shadow(0px 15px 0px rgb(0 0 0 / 0.4))"> <path d="M642.5 635c0 50.6-16.8 97.4-44.9 135-12.9 17-28 32.2-45.1 45.1-26.2 19.6-56.8 33.7-90 40.4-14.5 3-29.6 4.5-45 4.5v90h-90v-90h-45v90h-90v-90h-135v-90h360c15.8 0 30.9-2.7 45-7.7 52.4-18.5 90-68.5 90-127.3s-37.6-108.8-90-127.3c-14.1-5-29.2-7.7-45-7.7h-315V230h-45v-90h135V50h90v90h45V50h90v95.7c15.9 4.1 31 10.4 45 18.5 27.3 15.8 50.1 38.6 65.9 65.9 15.4 26.5 24.1 57.2 24.1 90h-90c0-33.3-18.1-62.4-45-77.9-13.2-7.7-28.6-12.1-45-12.1h-180v180h225c15.4 0 30.5 1.5 45 4.5 18 3.7 35.1 9.5 51.3 17.1 13.8 6.5 26.7 14.3 38.8 23.3 17 12.9 32.2 28 45.1 45.1 28 37.5 44.8 84.3 44.8 134.9z" fill="#fecb00"/> </g> </svg>